<svg width="1024" height="1024" viewBox="0 0 1024 1024" fill="none" xmlns="http://www.w3.org/2000/svg">
  <rect width="1024" height="1024" rx="168" fill="#F5F7F3"/>
  <rect x="114" y="114" width="796" height="796" rx="92" fill="#111816"/>
  <rect x="168" y="168" width="688" height="688" rx="58" fill="#FBFCF9"/>
  <path d="M168 284H856" stroke="#D7DED7" stroke-width="6"/>
  <circle cx="226" cy="226" r="18" fill="#CDD6CF"/>
  <circle cx="286" cy="226" r="18" fill="#CDD6CF"/>
  <circle cx="346" cy="226" r="18" fill="#CDD6CF"/>
  <text x="512" y="245" text-anchor="middle" fill="#58635F" font-family="Arial" font-size="34" font-weight="800">AGENT OPS</text>
  <text x="512" y="450" text-anchor="middle" fill="#111816" font-family="Arial" font-size="132" font-weight="900">CEO</text>
  <text x="512" y="535" text-anchor="middle" fill="#111816" font-family="Arial" font-size="62" font-weight="900">RUNBOOK</text>
  <rect x="244" y="614" width="536" height="72" rx="18" fill="#0D7F69"/>
  <text x="512" y="662" text-anchor="middle" fill="#FFFFFF" font-family="Arial" font-size="35" font-weight="800">Stop fake progress</text>
  <rect x="244" y="726" width="144" height="74" rx="18" fill="#FFFFFF" stroke="#BCC8C0" stroke-width="5"/>
  <rect x="440" y="726" width="144" height="74" rx="18" fill="#FFFFFF" stroke="#BCC8C0" stroke-width="5"/>
  <rect x="636" y="726" width="144" height="74" rx="18" fill="#FFFFFF" stroke="#BCC8C0" stroke-width="5"/>
  <text x="316" y="773" text-anchor="middle" fill="#58635F" font-family="Arial" font-size="25" font-weight="900">PLAN</text>
  <text x="512" y="773" text-anchor="middle" fill="#58635F" font-family="Arial" font-size="25" font-weight="900">RUN</text>
  <text x="708" y="773" text-anchor="middle" fill="#58635F" font-family="Arial" font-size="25" font-weight="900">STOP</text>
</svg>
